<?xml version="1.0" encoding="utf-8"?>
<!-- Generator: Adobe Illustrator 25.3.1, SVG Export Plug-In . SVG Version: 6.00 Build 0)  -->
<svg version="1.1" id="Layer_1" xmlns="http://www.w3.org/2000/svg" xmlns:xlink="http://www.w3.org/1999/xlink" x="0px" y="0px"
	 viewBox="0 0 240.1 45" style="enable-background:new 0 0 240.1 45;" xml:space="preserve">
<style type="text/css">
	.st0{fill:#E6007A;}
	.st1{fill:#172026;}
</style>
<g transform="translate(-479.462 -73.947)">
	<circle class="st0" cx="527" cy="103" r="14"/>
	<path class="st1" d="M489.1,103.1l-1.9,15.3h-7.7l5.3-43.3h13.2c2.1,0,4.3,0.3,6.3,0.9c1.6,0.5,3.1,1.3,4.4,2.5
		c1.1,1,2,2.3,2.5,3.8c0.6,1.5,0.8,3.1,0.8,4.8c0,2.2-0.3,4.4-1.1,6.4c-0.7,1.9-1.8,3.7-3.3,5.1c-1.6,1.5-3.4,2.6-5.5,3.4
		c-2.5,0.9-5.1,1.3-7.7,1.2H489.1z M491.8,81.1l-2,15.9h5.5c1.4,0,2.7-0.2,4-0.7c1.1-0.4,2-1.1,2.8-1.9c0.8-0.9,1.3-1.9,1.6-3
		c0.4-1.2,0.5-2.5,0.5-3.8c0-0.9-0.1-1.8-0.4-2.7c-0.3-0.8-0.7-1.5-1.3-2.1c-0.6-0.6-1.4-1-2.2-1.3c-1-0.3-2-0.5-3.1-0.5L491.8,81.1
		z M543.5,118.5l5.4-44.5h7.3l-5.4,44.5H543.5z M571.1,73.9L568,99.4h0.7c0.4,0,0.8-0.1,1.1-0.2c0.4-0.2,0.7-0.5,0.9-0.8l8.2-9.4
		c0.3-0.4,0.7-0.7,1.1-0.9c0.4-0.2,0.9-0.4,1.4-0.3h6.6l-10.1,11.4c-0.4,0.4-0.8,0.8-1.1,1.2c-0.4,0.3-0.8,0.6-1.2,0.9
		c0.4,0.3,0.7,0.6,0.9,1c0.2,0.4,0.5,0.8,0.7,1.3l7.6,14.9h-6.4c-0.5,0-0.9-0.1-1.3-0.3c-0.4-0.2-0.7-0.6-0.9-1l-6-11.7
		c-0.2-0.4-0.4-0.7-0.7-0.9c-0.4-0.2-0.8-0.2-1.2-0.2h-1l-1.7,14.1h-7.3l5.5-44.5H571.1z M609.4,118.5h-3.9
		c-0.7,0.1-1.4-0.2-1.9-0.6c-0.4-0.4-0.6-1-0.5-1.6l0.2-4.2c-1.2,1.9-2.8,3.6-4.6,5c-1.6,1.2-3.6,1.8-5.6,1.8
		c-1.1,0-2.2-0.2-3.2-0.7c-1-0.5-1.9-1.2-2.6-2.1c-0.8-1-1.4-2.2-1.8-3.4c-0.5-1.6-0.7-3.2-0.6-4.8c0-1.8,0.2-3.6,0.7-5.4
		c0.9-3.4,2.6-6.5,5-9.1c2.4-2.6,5.5-4.5,8.8-5.4c1.8-0.5,3.6-0.8,5.5-0.8c1.4,0,2.8,0.1,4.1,0.3c1.4,0.2,2.8,0.6,4.1,1.1
		L609.4,118.5z M596,112.9c0.9,0,1.7-0.3,2.4-0.8c0.9-0.6,1.6-1.4,2.2-2.3c0.8-1.1,1.4-2.3,1.9-3.5c0.6-1.4,1.1-2.8,1.6-4.3l1.2-9.3
		c-0.5-0.1-1-0.1-1.5-0.1c-1.6,0-3.2,0.4-4.6,1.1c-1.4,0.8-2.7,1.8-3.7,3.1c-1.1,1.3-1.9,2.9-2.4,4.5c-0.6,1.7-0.9,3.6-0.9,5.4
		c-0.1,1.6,0.2,3.3,1,4.7C593.8,112.3,594.9,112.9,596,112.9z M650.6,118.5h-7.8l2.3-19h-18.2l-2.3,19h-7.8l5.3-43.3h7.8l-2.3,18.8
		h18.2l2.3-18.8h7.8L650.6,118.5z M668.6,87.7c-0.4,3.4-0.7,6.2-1,8.6c-0.3,2.3-0.5,4.3-0.7,5.8c-0.2,1.6-0.3,2.8-0.4,3.7
		c-0.1,0.9-0.2,1.6-0.2,2c0,0.5-0.1,0.8-0.1,0.9c0,0.2,0,0.3,0,0.4c-0.1,1,0.2,2,0.7,2.8c0.6,0.6,1.4,0.9,2.2,0.9
		c0.8,0,1.7-0.2,2.4-0.6c0.9-0.5,1.7-1.1,2.4-1.8c0.8-0.9,1.5-1.9,2.1-2.9c0.7-1.2,1.3-2.5,1.7-3.8l1.9-15.9h7.4l-3.7,30.7h-3.7
		c-0.3,0-0.7,0-1-0.1c-0.3-0.1-0.6-0.2-0.8-0.4c-0.3-0.2-0.5-0.4-0.6-0.7c-0.2-0.3-0.2-0.6-0.2-1v-0.1l0.2-3.7
		c-1.3,2-3.1,3.7-5.1,4.9c-1.7,1-3.7,1.6-5.7,1.6c-1.1,0-2.1-0.2-3.1-0.6c-0.9-0.4-1.7-1-2.4-1.8c-0.7-0.9-1.2-1.8-1.5-2.9
		c-0.4-1.3-0.6-2.6-0.5-3.9c0-0.4,0-0.8,0-1.2s0.1-0.8,0.1-1.3l2.3-19.5L668.6,87.7z M690.4,118.5l5.4-44.5h7.2l-2.4,19.9
		c1.3-1.9,2.9-3.5,4.8-4.8c1.7-1.1,3.6-1.8,5.6-1.8c1.2,0,2.4,0.2,3.5,0.7c1.1,0.5,2,1.2,2.7,2.1c0.8,1.1,1.4,2.3,1.7,3.6
		c0.4,1.7,0.6,3.4,0.6,5.1c0,3.4-0.7,6.8-2.1,9.9c-0.6,1.5-1.4,2.8-2.4,4.1c-0.9,1.2-1.9,2.3-3,3.3c-1.1,0.9-2.3,1.6-3.6,2.2
		c-1.2,0.5-2.6,0.8-3.9,0.8c-2.9,0.1-5.6-1.2-7.3-3.5l-0.2,1c-0.1,1.2-1.2,2.2-2.4,2.1c-0.1,0-0.1,0-0.2,0L690.4,118.5z M708.2,93.1
		c-0.9,0-1.8,0.3-2.5,0.8c-0.9,0.6-1.7,1.4-2.4,2.3c-0.8,1.1-1.6,2.2-2.2,3.5c-0.7,1.4-1.3,2.8-1.7,4.3l-0.9,7.3
		c0.6,0.7,1.4,1.2,2.3,1.6c0.8,0.3,1.7,0.4,2.6,0.4c1.3,0,2.6-0.4,3.6-1.2c1.1-0.9,2.1-2,2.8-3.2c0.8-1.4,1.4-2.9,1.8-4.4
		c0.4-1.6,0.6-3.3,0.6-5c0.1-1.7-0.2-3.3-1-4.8C710.5,93.6,709.4,93,708.2,93.1L708.2,93.1z"/>
</g>
</svg>
