<svg xmlns="http://www.w3.org/2000/svg" width="18.948" height="20.996" viewBox="0 0 18.948 20.996"><defs><style>.a{fill:#fff;}</style></defs><path class="a" d="M18.423,0A2.3,2.3,0,0,1,20.7,2.165V21l-2.342-1.989-1.286-1.171-1.4-1.223.586,1.929H3.977a2.171,2.171,0,0,1-2.222-2.166V2.17A2.215,2.215,0,0,1,3.981,0H18.417ZM13.07,4.972h-.026l-.177.175a7.047,7.047,0,0,1,2.691,1.345A9.517,9.517,0,0,0,12.283,5.5a8.994,8.994,0,0,0-2.165,0H9.943a7.8,7.8,0,0,0-2.458.643c-.409.178-.643.294-.643.294A6.242,6.242,0,0,1,9.65,5.089l-.118-.118A5.257,5.257,0,0,0,6.49,6.082a13.692,13.692,0,0,0-1.579,6.141A3.817,3.817,0,0,0,8.185,13.8s.35-.466.7-.877A3.462,3.462,0,0,1,7.017,11.7a2.9,2.9,0,0,1,.293.175h.052a.07.07,0,0,1,.052.026V11.9a.067.067,0,0,0,.052.026c.289.119.577.236.814.35a7.157,7.157,0,0,0,1.575.469,8.986,8.986,0,0,0,2.808,0,8.085,8.085,0,0,0,1.575-.468,12.62,12.62,0,0,0,1.222-.645,3.477,3.477,0,0,1-1.929,1.228c.289.408.7.875.7.875a4.566,4.566,0,0,0,3.386-1.51,13.664,13.664,0,0,0-1.588-6.141,5.261,5.261,0,0,0-3.005-1.1l.049-.017Zm.147,3.861a1.172,1.172,0,1,1-1.111,1.173,1.141,1.141,0,0,1,1.111-1.173Zm-3.974,0a1.172,1.172,0,1,1-1.115,1.173A1.14,1.14,0,0,1,9.243,8.832Z" transform="translate(-1.755)"/></svg>