<svg xmlns="http://www.w3.org/2000/svg" width="20.572" height="20.058" viewBox="0 0 20.572 20.058"><defs><style>.a{fill:#fff;}</style></defs><path class="a" d="M6.881,16.713c0,.083-.1.149-.216.149-.137.012-.232-.054-.232-.149s.1-.149.216-.149S6.881,16.618,6.881,16.713Zm-1.29-.187c-.029.083.054.178.178.2a.2.2,0,0,0,.257-.083c.025-.083-.054-.178-.178-.216A.213.213,0,0,0,5.591,16.526Zm1.833-.071c-.12.029-.2.108-.191.2s.12.137.245.108.2-.108.191-.191S7.544,16.443,7.424,16.456ZM10.153.563A9.945,9.945,0,0,0,0,10.683,10.4,10.4,0,0,0,7.03,20.6c.531.1.718-.232.718-.5s-.012-1.676-.012-2.547c0,0-2.9.622-3.513-1.236,0,0-.473-1.207-1.153-1.518,0,0-.95-.651.066-.639a2.189,2.189,0,0,1,1.6,1.07A2.192,2.192,0,0,0,7.76,16.1a2.305,2.305,0,0,1,.664-1.4c-2.318-.257-4.658-.593-4.658-4.583a3.143,3.143,0,0,1,.979-2.443,3.919,3.919,0,0,1,.108-2.816c.867-.27,2.862,1.12,2.862,1.12a9.8,9.8,0,0,1,5.209,0s1.995-1.394,2.862-1.12a3.917,3.917,0,0,1,.108,2.816,3.224,3.224,0,0,1,1.07,2.443c0,4-2.443,4.322-4.761,4.583a2.453,2.453,0,0,1,.705,1.924c0,1.4-.012,3.127-.012,3.467,0,.27.191.6.718.5a10.3,10.3,0,0,0,6.96-9.913A10.17,10.17,0,0,0,10.153.563Zm-6.122,14.3c-.054.041-.041.137.029.216s.162.1.216.041.041-.137-.029-.216S4.085,14.813,4.031,14.867Zm-.448-.336c-.029.054.012.12.1.162a.123.123,0,0,0,.178-.029c.029-.054-.012-.12-.1-.162C3.679,14.478,3.613,14.49,3.583,14.531Zm1.344,1.477c-.066.054-.041.178.054.257.1.1.216.108.27.041s.029-.178-.054-.257C5.106,15.954,4.981,15.942,4.927,16.008Zm-.473-.61c-.066.041-.066.149,0,.245s.178.137.232.1a.189.189,0,0,0,0-.257C4.629,15.386,4.521,15.344,4.454,15.4Z" transform="translate(0 -0.563)"/></svg>