<svg xmlns="http://www.w3.org/2000/svg" width="22.156" height="17.995" viewBox="0 0 22.156 17.995"><defs><style>.a{fill:#fff;}</style></defs><path class="a" d="M19.878,7.865c.014.2.014.394.014.59a12.831,12.831,0,0,1-12.92,12.92A12.832,12.832,0,0,1,0,19.337a9.394,9.394,0,0,0,1.1.056,9.094,9.094,0,0,0,5.637-1.94A4.549,4.549,0,0,1,2.488,14.3a5.726,5.726,0,0,0,.858.07,4.8,4.8,0,0,0,1.195-.155A4.541,4.541,0,0,1,.9,9.763V9.707a4.573,4.573,0,0,0,2.052.576A4.548,4.548,0,0,1,1.546,4.21a12.907,12.907,0,0,0,9.363,4.752,5.126,5.126,0,0,1-.112-1.04,4.545,4.545,0,0,1,7.859-3.107,8.94,8.94,0,0,0,2.882-1.1,4.529,4.529,0,0,1-2,2.5,9.1,9.1,0,0,0,2.615-.7,9.761,9.761,0,0,1-2.277,2.348Z" transform="translate(0 -3.381)"/></svg>