<svg xmlns="http://www.w3.org/2000/svg" width="19.119" height="19.119" viewBox="0 0 19.119 19.119"><defs><style>.a{fill:#fff;}</style></defs><path class="a" d="M18.043,6.093a3.995,3.995,0,0,1,3.983,3.983v7.966a3.995,3.995,0,0,1-3.983,3.983H10.076a3.995,3.995,0,0,1-3.983-3.983V10.076a3.995,3.995,0,0,1,3.983-3.983h7.966m0-1.593H10.076A5.593,5.593,0,0,0,4.5,10.076v7.966a5.593,5.593,0,0,0,5.576,5.576h7.966a5.593,5.593,0,0,0,5.576-5.576V10.076A5.593,5.593,0,0,0,18.043,4.5Z" transform="translate(-4.5 -4.5)"/><path class="a" d="M24.82,11.39a1.195,1.195,0,1,1,1.195-1.195A1.192,1.192,0,0,1,24.82,11.39Z" transform="translate(-10.082 -5.813)"/><path class="a" d="M16.03,12.843a3.187,3.187,0,1,1-3.187,3.187,3.189,3.189,0,0,1,3.187-3.187m0-1.593a4.78,4.78,0,1,0,4.78,4.78,4.781,4.781,0,0,0-4.78-4.78Z" transform="translate(-6.47 -6.47)"/></svg>