<svg xmlns="http://www.w3.org/2000/svg" width="240.076" height="44.963" viewBox="0 0 240.076 44.963"><defs><style>.a{fill:#e6007a;}.b{fill:#fff;}</style></defs><g transform="translate(-479.462 -73.947)"><circle class="a" cx="14" cy="14" r="14" transform="translate(513 89)"/><path class="b" d="M9.078,20.261,7.191,35.6H-.538l5.3-43.316h13.18a20.128,20.128,0,0,1,6.336.884,11.756,11.756,0,0,1,4.359,2.471A9.828,9.828,0,0,1,31.17-.6a13.371,13.371,0,0,1,.824,4.778A18.354,18.354,0,0,1,30.9,10.6a13.687,13.687,0,0,1-3.28,5.092,15.241,15.241,0,0,1-5.467,3.355A22.025,22.025,0,0,1,14.5,20.261ZM11.8-1.727,9.827,14.21h5.452a10.369,10.369,0,0,0,3.954-.689,7.464,7.464,0,0,0,2.786-1.932,7.816,7.816,0,0,0,1.633-2.951,12.821,12.821,0,0,0,.524-3.774,8.3,8.3,0,0,0-.419-2.7A5.246,5.246,0,0,0,22.468.086,6,6,0,0,0,20.3-1.247a8.991,8.991,0,0,0-3.1-.479ZM63.459,35.6,68.851-8.916H76.13L70.738,35.6ZM91.078-8.916,87.962,16.576h.749a2.592,2.592,0,0,0,1.123-.21,2.943,2.943,0,0,0,.914-.779L98.9,6.152A4.982,4.982,0,0,1,100,5.208a2.738,2.738,0,0,1,1.438-.344h6.59L97.908,16.277q-.569.629-1.138,1.153a7.927,7.927,0,0,1-1.2.914,3.594,3.594,0,0,1,.944,1.033q.374.614.734,1.3L104.857,35.6H98.447a2.661,2.661,0,0,1-1.333-.3,2.314,2.314,0,0,1-.884-1.018L90.269,22.627a2.128,2.128,0,0,0-.734-.9,2.613,2.613,0,0,0-1.213-.21h-.989L85.626,35.6H78.317L83.769-8.916ZM129.391,35.6H125.5a2.384,2.384,0,0,1-1.887-.629,2.353,2.353,0,0,1-.539-1.588l.24-4.194a18.23,18.23,0,0,1-4.583,5.018,9.345,9.345,0,0,1-5.6,1.842,7.748,7.748,0,0,1-3.25-.689,7.331,7.331,0,0,1-2.636-2.052,10.026,10.026,0,0,1-1.767-3.415,16.105,16.105,0,0,1-.644-4.808,20.891,20.891,0,0,1,.689-5.362,21.09,21.09,0,0,1,5.033-9.107A19.644,19.644,0,0,1,119.4,5.178a19.237,19.237,0,0,1,5.467-.764,29.1,29.1,0,0,1,4.149.3,18.59,18.59,0,0,1,4.089,1.078ZM116.031,30a4.132,4.132,0,0,0,2.411-.839,9.577,9.577,0,0,0,2.232-2.322,20.677,20.677,0,0,0,1.947-3.49,32.173,32.173,0,0,0,1.558-4.314l1.168-9.286a13.628,13.628,0,0,0-1.5-.09,9.624,9.624,0,0,0-4.613,1.138,11.928,11.928,0,0,0-3.685,3.07,14.753,14.753,0,0,0-2.441,4.493,16.461,16.461,0,0,0-.884,5.407,8.585,8.585,0,0,0,1.018,4.733A3.2,3.2,0,0,0,116.031,30Zm54.609,5.6h-7.818l2.337-19.022H146.945L144.609,35.6H136.79l5.332-43.316h7.818L147.6,11.064h18.243l2.337-18.782H176Zm18-30.734q-.6,5.063-1.018,8.567t-.689,5.841q-.27,2.337-.419,3.685t-.225,2.037q-.075.689-.09.929t-.015.389a4.336,4.336,0,0,0,.734,2.831,2.783,2.783,0,0,0,2.232.854,5.23,5.23,0,0,0,2.411-.644,9.29,9.29,0,0,0,2.4-1.842A15.012,15.012,0,0,0,196.1,24.6a20.082,20.082,0,0,0,1.678-3.8L199.7,4.864h7.4L203.382,35.6h-3.744a3.474,3.474,0,0,1-.974-.135,2.721,2.721,0,0,1-.839-.4,2,2,0,0,1-.6-.689,2.064,2.064,0,0,1-.225-.989v-.12l.18-3.744a16.759,16.759,0,0,1-5.107,4.913,11.231,11.231,0,0,1-5.736,1.618,7.6,7.6,0,0,1-3.1-.614,6.535,6.535,0,0,1-2.381-1.782,8.213,8.213,0,0,1-1.528-2.891,13.185,13.185,0,0,1-.539-3.939q0-.6.03-1.2t.12-1.258l2.307-19.5ZM210.391,35.6l5.422-44.514h7.219l-2.426,19.861a18.711,18.711,0,0,1,4.808-4.793,10,10,0,0,1,5.647-1.767,8.447,8.447,0,0,1,3.49.7A7.035,7.035,0,0,1,237.231,7.2a10.044,10.044,0,0,1,1.707,3.565,19.029,19.029,0,0,1,.6,5.063,24.745,24.745,0,0,1-2.067,9.885,22.533,22.533,0,0,1-2.352,4.134,17.309,17.309,0,0,1-3.04,3.265,13.957,13.957,0,0,1-3.58,2.157,10.3,10.3,0,0,1-3.939.779,8.951,8.951,0,0,1-7.309-3.5l-.24,1.018a2.239,2.239,0,0,1-2.606,2.037Zm17.794-25.4a4.469,4.469,0,0,0-2.486.839,11.117,11.117,0,0,0-2.441,2.307,19.408,19.408,0,0,0-2.187,3.46,28.641,28.641,0,0,0-1.722,4.269l-.9,7.339a5.606,5.606,0,0,0,2.337,1.558,8.041,8.041,0,0,0,2.606.449,5.8,5.8,0,0,0,3.595-1.228,10.767,10.767,0,0,0,2.771-3.205,17.2,17.2,0,0,0,1.782-4.448,20.027,20.027,0,0,0,.629-4.958,8.784,8.784,0,0,0-1.048-4.808A3.334,3.334,0,0,0,228.185,10.2Z" transform="translate(480 82.863)"/></g></svg>